<svg width="212" height="95" viewBox="0 0 212 95" fill="none" xmlns="http://www.w3.org/2000/svg">
<path d="M0.15625 31.6668L41.2927 7.91671V0L0.15625 23.7501V31.6668Z" fill="url(#paint0_linear)"/>
<path d="M41.2927 47.4992L0.15625 23.749V31.6657L41.2927 55.4159V47.4992Z" fill="#171735"/>
<path d="M82.4264 71.2493V23.749L75.5703 27.7074V75.2076L82.4264 71.2493Z" fill="url(#paint1_linear)"/>
<path d="M82.4275 23.749L41.291 47.4992V55.4159L82.4275 31.6657V23.749Z" fill="#232345"/>
<path d="M82.4275 63.333L41.291 87.0831V94.9998L82.4275 71.2497V63.333Z" fill="#232345"/>
<path d="M0.15625 63.333V71.2497L41.2927 94.9998V87.0831L0.15625 63.333Z" fill="#171735"/>
<path d="M55.0024 7.91602V15.8327L27.5781 31.6661V23.7494L55.0024 7.91602Z" fill="url(#paint2_linear)"/>
<path d="M68.7153 15.833V23.7497L41.291 39.5831V31.6664L68.7153 15.833Z" fill="#1DD882"/>
<path d="M27.5781 23.749L41.2903 31.6657V39.5824L27.5781 31.6657V23.749Z" fill="#13C674"/>
<path d="M7.01172 43.542V51.4587L27.5799 63.3338V55.4171L7.01172 43.542Z" fill="#13C674"/>
<path d="M48.1484 67.2921V75.2088L68.7167 63.3337V55.417L48.1484 67.2921Z" fill="#1DD882"/>
<path d="M112.535 54.5401C112.615 57.2997 114.634 58.6795 118.594 58.6795C120.113 58.6795 121.353 58.3595 122.313 57.7196C123.313 57.0397 123.813 56.2598 123.813 55.38C123.813 54.5 123.513 53.8202 122.913 53.3403C122.313 52.8604 121.373 52.4204 120.093 52.0205L113.734 49.7409C109.015 48.1011 106.655 45.4215 106.655 41.7021C106.655 39.2224 107.755 37.2428 109.955 35.763C112.195 34.2432 115.174 33.4834 118.894 33.4834C122.653 33.4834 125.533 34.3032 127.532 35.943C129.572 37.5826 130.632 39.6424 130.712 42.1221H124.053C123.973 41.1622 123.513 40.4022 122.673 39.8424C121.833 39.2824 120.633 39.0025 119.073 39.0025C117.514 39.0025 116.294 39.3224 115.414 39.9624C114.574 40.5623 114.154 41.2621 114.154 42.0621C114.154 43.4617 115.334 44.5016 117.694 45.1816L124.593 47.7612C126.872 48.521 128.612 49.5009 129.812 50.7007C131.052 51.8604 131.672 53.3802 131.672 55.26C131.672 57.6596 130.532 59.7392 128.252 61.499C125.893 63.3387 122.773 64.2586 118.894 64.2586C115.014 64.2586 111.895 63.4187 109.535 61.739C107.175 60.0192 105.976 57.6195 105.936 54.5401H112.535Z" fill="#232345"/>
<path d="M157.163 62.6984C154.524 63.7381 152.444 64.2581 150.924 64.2581C149.404 64.2581 148.065 64.0781 146.905 63.7182C145.785 63.3583 144.785 62.8183 143.905 62.0984C142.066 60.4586 141.146 58.1991 141.146 55.3195V39.002H137.066V34.2628H141.146V26.584H148.224V34.2628H156.143V39.002H148.224V55.0795C148.224 57.4792 149.364 58.679 151.644 58.679C152.804 58.679 154.304 58.359 156.143 57.7191L157.163 62.6984Z" fill="#232345"/>
<path d="M165.508 34.203H172.587V63.4184H165.508V34.203ZM164.668 24.8444C164.668 23.5646 165.047 22.5648 165.808 21.8449C166.567 21.0849 167.647 20.7051 169.047 20.7051C170.406 20.7051 171.466 21.0849 172.227 21.8449C173.026 22.5648 173.427 23.5646 173.427 24.8444C173.427 26.1241 173.026 27.144 172.227 27.904C171.466 28.6238 170.406 28.9838 169.047 28.9838C167.647 28.9838 166.567 28.6238 165.808 27.904C165.047 27.144 164.668 26.1241 164.668 24.8444Z" fill="#232345"/>
<path d="M211.741 63.4176H203.103L195.904 54.0591L189.185 63.4176H180.486L191.825 48.8999L180.486 34.2021H189.185L196.324 43.5607L203.103 34.2021H211.741L200.463 48.8999L211.741 63.4176Z" fill="#232345"/>
<defs>
<linearGradient id="paint0_linear" x1="41.2927" y1="3.77084" x2="0.156249" y2="28.6241" gradientUnits="userSpaceOnUse">
<stop stop-color="#232345"/>
<stop offset="0.865664" stop-color="#0D0D22"/>
</linearGradient>
<linearGradient id="paint1_linear" x1="78.9983" y1="25.7949" x2="78.9983" y2="72.9304" gradientUnits="userSpaceOnUse">
<stop stop-color="#0D0D22"/>
<stop offset="0.345724" stop-color="#171735"/>
<stop offset="0.677533" stop-color="#13132D"/>
<stop offset="1" stop-color="#0D0D22"/>
</linearGradient>
<linearGradient id="paint2_linear" x1="55.0024" y1="11.9974" x2="27.5781" y2="28.1092" gradientUnits="userSpaceOnUse">
<stop stop-color="#1DD882"/>
<stop offset="0.812154" stop-color="#09B466"/>
</linearGradient>
</defs>
</svg>
